<svg width="37" height="68" viewBox="0 0 37 68" fill="none" xmlns="http://www.w3.org/2000/svg">
<path d="M29.9234 0.543719C29.8884 0.421727 29.8236 0.315518 29.7378 0.239181C29.6519 0.162843 29.5489 0.119966 29.4426 0.116233C29.3362 0.1125 29.2313 0.148095 29.142 0.218284C29.0526 0.288473 28.9829 0.389948 28.9422 0.50928C28.2375 2.58921 27.447 4.62477 26.5737 6.60819C19.2705 23.2198 10.413 38.7535 0.176997 52.9015C0.0898019 53.0202 0.0426683 53.1745 0.0450048 53.3335C0.0473412 53.4926 0.098969 53.6447 0.189597 53.7596L1.95926 56.0255C1.43922 56.7728 1.00295 57.6003 0.661829 58.4865C0.295472 59.4657 0.139 60.5415 0.206957 61.6138C0.274915 62.6861 0.565092 63.7201 1.05053 64.6198C1.48266 65.4757 2.08558 66.1854 2.80354 66.6836C3.5215 67.1817 4.33134 67.4521 5.15819 67.4697H32.0245C32.6879 67.4694 33.3445 67.3081 33.9558 66.9953C34.5671 66.6825 35.1207 66.2246 35.5842 65.6485C36.0476 65.0723 36.4115 64.3895 36.6544 63.6403C36.8974 62.891 37.0145 62.0904 36.9989 61.2854C36.7331 48.3295 35.4992 19.6176 29.9234 0.543719Z" fill="black"/>
</svg>
